<svg width="320" height="61" viewBox="0 0 320 61" fill="none" xmlns="http://www.w3.org/2000/svg">
<rect width="320" height="61" fill="white"/>
<rect width="320" height="1" fill="#F1F1F1"/>
<path d="M29.96 47V39.88H30.78V47H29.96ZM24.88 47V39.88H25.69V47H24.88ZM25.26 43.73V43.04H30.42V43.73H25.26ZM34.5163 47.07C34.0363 47.07 33.6163 46.9633 33.2563 46.75C32.9029 46.5367 32.6263 46.2367 32.4263 45.85C32.2329 45.4567 32.1363 44.9933 32.1363 44.46C32.1363 43.9333 32.2329 43.4733 32.4263 43.08C32.6263 42.6867 32.9029 42.3833 33.2563 42.17C33.6163 41.9567 34.0363 41.85 34.5163 41.85C34.9963 41.85 35.4129 41.9567 35.7663 42.17C36.1263 42.3833 36.4029 42.6867 36.5963 43.08C36.7963 43.4733 36.8963 43.9333 36.8963 44.46C36.8963 44.9933 36.7963 45.4567 36.5963 45.85C36.4029 46.2367 36.1263 46.5367 35.7663 46.75C35.4129 46.9633 34.9963 47.07 34.5163 47.07ZM34.5163 46.4C35.0096 46.4 35.3896 46.2367 35.6563 45.91C35.9296 45.5767 36.0663 45.0933 36.0663 44.46C36.0663 43.84 35.9296 43.3633 35.6563 43.03C35.3829 42.6967 35.0029 42.53 34.5163 42.53C34.0296 42.53 33.6463 42.6967 33.3663 43.03C33.0929 43.3633 32.9563 43.84 32.9563 44.46C32.9563 45.0933 33.0896 45.5767 33.3563 45.91C33.6296 46.2367 34.0163 46.4 34.5163 46.4ZM38.1589 47V43.38C38.1589 43.1467 38.1522 42.9133 38.1389 42.68C38.1322 42.44 38.1122 42.2033 38.0789 41.97H38.8489L38.9389 43.01L38.8389 43.08C38.9589 42.6867 39.1656 42.3833 39.4589 42.17C39.7589 41.9567 40.1122 41.85 40.5189 41.85C41.0056 41.85 41.3822 41.97 41.6489 42.21C41.9222 42.45 42.0956 42.8167 42.1689 43.31L41.9289 43.18C42.0356 42.7733 42.2489 42.45 42.5689 42.21C42.8956 41.97 43.2856 41.85 43.7389 41.85C44.2922 41.85 44.7089 42.0167 44.9889 42.35C45.2689 42.6767 45.4089 43.1733 45.4089 43.84V47H44.5989V43.88C44.5989 43.4133 44.5156 43.0733 44.3489 42.86C44.1822 42.64 43.9189 42.53 43.5589 42.53C43.1389 42.53 42.8056 42.6733 42.5589 42.96C42.3189 43.2467 42.1989 43.6367 42.1989 44.13V47H41.3889V43.88C41.3889 43.4133 41.3022 43.0733 41.1289 42.86C40.9622 42.64 40.6989 42.53 40.3389 42.53C39.9122 42.53 39.5756 42.6733 39.3289 42.96C39.0889 43.2467 38.9689 43.6367 38.9689 44.13V47H38.1589ZM51.068 46.4C50.848 46.6067 50.5646 46.77 50.218 46.89C49.878 47.01 49.528 47.07 49.168 47.07C48.648 47.07 48.198 46.9667 47.818 46.76C47.4446 46.5533 47.1546 46.2567 46.948 45.87C46.748 45.4767 46.648 45.01 46.648 44.47C46.648 43.95 46.748 43.4933 46.948 43.1C47.148 42.7067 47.4246 42.4 47.778 42.18C48.138 41.96 48.5513 41.85 49.018 41.85C49.4646 41.85 49.848 41.95 50.168 42.15C50.488 42.3433 50.7313 42.6233 50.898 42.99C51.0713 43.3567 51.158 43.7967 51.158 44.31V44.46H47.358V43.93H50.698L50.438 44.3C50.4513 43.7133 50.3346 43.2633 50.088 42.95C49.848 42.6367 49.4946 42.48 49.028 42.48C48.5413 42.48 48.158 42.6533 47.878 43C47.6046 43.34 47.468 43.8133 47.468 44.42C47.468 45.0733 47.6113 45.5667 47.898 45.9C48.1913 46.2333 48.618 46.4 49.178 46.4C49.4713 46.4 49.7513 46.3533 50.018 46.26C50.2913 46.16 50.5513 46.01 50.798 45.81L51.068 46.4Z" fill="#898989"/>
<path opacity="0.24" fill-rule="evenodd" clip-rule="evenodd" d="M29.5519 23.5921C29.1969 23.9455 28.6213 23.9455 28.2663 23.5921C27.9112 23.2388 27.9112 22.6659 28.2663 22.3126L37.3572 13.265C37.7122 12.9117 38.2878 12.9117 38.6428 13.265L47.7337 22.3126C48.0888 22.6659 48.0888 23.2388 47.7337 23.5921C47.3787 23.9455 46.8031 23.9455 46.4481 23.5921L46.1818 23.3274V30.1945C46.1818 31.1933 45.3689 32 44.3628 32H31.6372C30.6335 32 29.8182 31.1934 29.8182 30.1945V23.3274L29.5519 23.5921ZM31.6372 30.1905L34.3636 30.191V24.7597C34.3636 24.2612 34.7702 23.8571 35.27 23.8571H40.73C41.2306 23.8571 41.6364 24.2609 41.6364 24.7597V30.1929L44.3636 30.1945V21.5194L38 15.1917L31.6363 21.5195C31.6361 23.2308 31.6372 30.1905 31.6372 30.1905ZM39.8182 25.6653V30.1923L36.1818 30.1914V25.6667L39.8182 25.6653Z" fill="black"/>
<path d="M100.6 47V40.58H98.12V39.88H103.91V40.58H101.43V47H100.6ZM104.034 47V43.38C104.034 43.1467 104.027 42.9133 104.014 42.68C104.007 42.44 103.987 42.2033 103.954 41.97H104.724L104.834 43.21L104.724 43.18C104.817 42.74 105.017 42.41 105.324 42.19C105.637 41.9633 105.987 41.85 106.374 41.85C106.461 41.85 106.541 41.8567 106.614 41.87C106.694 41.8767 106.767 41.89 106.834 41.91L106.814 42.65C106.661 42.5967 106.484 42.57 106.284 42.57C105.937 42.57 105.657 42.6467 105.444 42.8C105.237 42.9533 105.084 43.15 104.984 43.39C104.891 43.6233 104.844 43.87 104.844 44.13V47H104.034ZM111.679 46.4C111.459 46.6067 111.176 46.77 110.829 46.89C110.489 47.01 110.139 47.07 109.779 47.07C109.259 47.07 108.809 46.9667 108.429 46.76C108.056 46.5533 107.766 46.2567 107.559 45.87C107.359 45.4767 107.259 45.01 107.259 44.47C107.259 43.95 107.359 43.4933 107.559 43.1C107.759 42.7067 108.036 42.4 108.389 42.18C108.749 41.96 109.163 41.85 109.629 41.85C110.076 41.85 110.459 41.95 110.779 42.15C111.099 42.3433 111.343 42.6233 111.509 42.99C111.683 43.3567 111.769 43.7967 111.769 44.31V44.46H107.969V43.93H111.309L111.049 44.3C111.063 43.7133 110.946 43.2633 110.699 42.95C110.459 42.6367 110.106 42.48 109.639 42.48C109.153 42.48 108.769 42.6533 108.489 43C108.216 43.34 108.079 43.8133 108.079 44.42C108.079 45.0733 108.223 45.5667 108.509 45.9C108.803 46.2333 109.229 46.4 109.789 46.4C110.083 46.4 110.363 46.3533 110.629 46.26C110.903 46.16 111.163 46.01 111.409 45.81L111.679 46.4ZM112.999 47V43.38C112.999 43.1467 112.992 42.9133 112.979 42.68C112.972 42.44 112.952 42.2033 112.919 41.97H113.689L113.779 43.01L113.679 43.09C113.819 42.6833 114.052 42.3767 114.379 42.17C114.705 41.9567 115.082 41.85 115.509 41.85C116.715 41.85 117.319 42.5133 117.319 43.84V47H116.509V43.88C116.509 43.4133 116.415 43.0733 116.229 42.86C116.042 42.64 115.749 42.53 115.349 42.53C114.882 42.53 114.509 42.6733 114.229 42.96C113.949 43.2467 113.809 43.6333 113.809 44.12V47H112.999ZM123.278 47H122.478V45.65L122.598 45.76C122.485 46.18 122.268 46.5033 121.948 46.73C121.628 46.9567 121.238 47.07 120.778 47.07C120.338 47.07 119.948 46.9633 119.608 46.75C119.275 46.53 119.015 46.2233 118.828 45.83C118.642 45.43 118.548 44.9667 118.548 44.44C118.548 43.9133 118.638 43.4567 118.818 43.07C119.005 42.6833 119.265 42.3833 119.598 42.17C119.938 41.9567 120.332 41.85 120.778 41.85C121.238 41.85 121.628 41.9667 121.948 42.2C122.268 42.4267 122.485 42.7467 122.598 43.16L122.468 43.26V39.64H123.278V47ZM120.938 46.4C121.425 46.4 121.802 46.2333 122.068 45.9C122.342 45.56 122.478 45.08 122.478 44.46C122.478 43.8467 122.345 43.3733 122.078 43.04C121.812 42.7 121.432 42.53 120.938 42.53C120.445 42.53 120.058 42.6967 119.778 43.03C119.505 43.3633 119.368 43.8333 119.368 44.44C119.368 45.06 119.505 45.5433 119.778 45.89C120.058 46.23 120.445 46.4 120.938 46.4ZM124.844 47V41.97H125.654V47H124.844ZM124.764 39.84H125.754V40.76H124.764V39.84ZM127.227 47V43.38C127.227 43.1467 127.221 42.9133 127.207 42.68C127.201 42.44 127.181 42.2033 127.147 41.97H127.917L128.007 43.01L127.907 43.09C128.047 42.6833 128.281 42.3767 128.607 42.17C128.934 41.9567 129.311 41.85 129.737 41.85C130.944 41.85 131.547 42.5133 131.547 43.84V47H130.737V43.88C130.737 43.4133 130.644 43.0733 130.457 42.86C130.271 42.64 129.977 42.53 129.577 42.53C129.111 42.53 128.737 42.6733 128.457 42.96C128.177 43.2467 128.037 43.6333 128.037 44.12V47H127.227ZM135.287 49.23C134.527 49.23 133.867 49.0567 133.307 48.71L133.447 48.05C133.76 48.23 134.057 48.36 134.337 48.44C134.617 48.52 134.934 48.56 135.287 48.56C135.767 48.56 136.13 48.43 136.377 48.17C136.63 47.9167 136.757 47.5367 136.757 47.03V45.67L136.867 45.54C136.787 45.8067 136.66 46.04 136.487 46.24C136.32 46.4333 136.114 46.5833 135.867 46.69C135.62 46.7967 135.34 46.85 135.027 46.85C134.58 46.85 134.187 46.7467 133.847 46.54C133.514 46.3267 133.25 46.0333 133.057 45.66C132.87 45.2867 132.777 44.85 132.777 44.35C132.777 43.85 132.87 43.4133 133.057 43.04C133.25 42.6667 133.514 42.3767 133.847 42.17C134.187 41.9567 134.58 41.85 135.027 41.85C135.494 41.85 135.887 41.9667 136.207 42.2C136.534 42.4267 136.754 42.7467 136.867 43.16L136.747 43.05V41.97H137.557V46.96C137.557 47.7133 137.364 48.28 136.977 48.66C136.597 49.04 136.034 49.23 135.287 49.23ZM135.187 46.17C135.674 46.17 136.054 46.01 136.327 45.69C136.607 45.3633 136.747 44.9167 136.747 44.35C136.747 43.7833 136.607 43.34 136.327 43.02C136.054 42.6933 135.674 42.53 135.187 42.53C134.694 42.53 134.304 42.6933 134.017 43.02C133.737 43.34 133.597 43.7833 133.597 44.35C133.597 44.9233 133.737 45.37 134.017 45.69C134.304 46.01 134.694 46.17 135.187 46.17Z" fill="#898989"/>
<path opacity="0.24" fill-rule="evenodd" clip-rule="evenodd" d="M124.615 19.2004C126.132 20.5108 127 22.1175 127 24.321C127 28.9118 123.413 32.5268 119.011 32.5268C114.606 32.5268 111 28.9093 111 24.321C111 21.7941 111.548 20.2324 113.155 17.6366C113.664 16.8152 114.899 17.1143 114.994 18.0821C115.08 18.9517 115.344 19.6919 115.729 20.2593C115.472 17.1929 116.804 13.7443 120.086 12.106C120.846 11.7267 121.694 12.4245 121.497 13.2665C120.984 15.4485 121.512 16.6224 122.892 17.8871C122.926 17.9179 123.098 18.0449 123.325 18.2128C123.737 18.5169 124.331 18.9552 124.615 19.2004ZM113.621 21.0074C113.339 21.6634 113 22.4525 113 24.321C113 27.7681 115.701 30.478 119.011 30.478C122.316 30.478 125 27.7727 125 24.321C125 22.7811 124.425 21.7158 123.326 20.7668C123.152 20.617 122.746 20.3146 122.363 20.0299C122.001 19.7608 121.661 19.5075 121.559 19.4142C120.234 18.2 119.424 16.9071 119.314 15.1831C118.644 15.8521 117.104 17.9321 117.972 22.0484C118.106 22.6865 117.632 23.289 116.995 23.289C115.73 23.289 114.48 22.2984 113.716 20.782C113.686 20.8563 113.654 20.931 113.621 21.0074Z" fill="black"/>
<path d="M171.14 47.08C170.773 47.08 170.43 47.05 170.11 46.99C169.79 46.9233 169.493 46.8233 169.22 46.69C168.947 46.55 168.7 46.38 168.48 46.18L168.79 45.55C169.15 45.85 169.51 46.0633 169.87 46.19C170.237 46.3167 170.663 46.38 171.15 46.38C171.717 46.38 172.157 46.27 172.47 46.05C172.783 45.8233 172.94 45.5067 172.94 45.1C172.94 44.8533 172.86 44.6567 172.7 44.51C172.547 44.3567 172.333 44.2367 172.06 44.15C171.793 44.0567 171.49 43.97 171.15 43.89C170.81 43.8167 170.487 43.7333 170.18 43.64C169.873 43.54 169.6 43.4167 169.36 43.27C169.127 43.1233 168.943 42.9367 168.81 42.71C168.677 42.4833 168.61 42.2 168.61 41.86C168.61 41.4533 168.717 41.0967 168.93 40.79C169.143 40.4767 169.443 40.2333 169.83 40.06C170.217 39.8867 170.673 39.8 171.2 39.8C171.527 39.8 171.84 39.8367 172.14 39.91C172.44 39.9767 172.717 40.0767 172.97 40.21C173.23 40.3433 173.46 40.5067 173.66 40.7L173.34 41.33C173.013 41.0433 172.677 40.8333 172.33 40.7C171.983 40.5667 171.607 40.5 171.2 40.5C170.647 40.5 170.213 40.6167 169.9 40.85C169.587 41.0833 169.43 41.41 169.43 41.83C169.43 42.09 169.5 42.3 169.64 42.46C169.78 42.62 169.977 42.75 170.23 42.85C170.483 42.9433 170.773 43.03 171.1 43.11C171.447 43.19 171.78 43.2767 172.1 43.37C172.42 43.4633 172.703 43.58 172.95 43.72C173.203 43.8533 173.403 44.03 173.55 44.25C173.697 44.4633 173.77 44.7367 173.77 45.07C173.77 45.4767 173.663 45.83 173.45 46.13C173.237 46.43 172.933 46.6633 172.54 46.83C172.147 46.9967 171.68 47.08 171.14 47.08ZM176.79 47.07C176.19 47.07 175.737 46.9033 175.43 46.57C175.13 46.2367 174.98 45.7433 174.98 45.09V41.97H175.79V45.07C175.79 45.5233 175.884 45.8567 176.07 46.07C176.257 46.2833 176.54 46.39 176.92 46.39C177.367 46.39 177.727 46.2467 178 45.96C178.274 45.6733 178.41 45.29 178.41 44.81V41.97H179.22V47H178.43V45.91L178.55 45.85C178.417 46.25 178.19 46.5533 177.87 46.76C177.557 46.9667 177.197 47.07 176.79 47.07ZM180.782 47V39.64H181.592V43.26L181.482 43.16C181.595 42.7467 181.812 42.4267 182.132 42.2C182.452 41.9667 182.839 41.85 183.292 41.85C183.739 41.85 184.129 41.9567 184.462 42.17C184.795 42.3833 185.055 42.6833 185.242 43.07C185.435 43.4567 185.532 43.9133 185.532 44.44C185.532 44.9667 185.435 45.43 185.242 45.83C185.055 46.2233 184.792 46.53 184.452 46.75C184.119 46.9633 183.732 47.07 183.292 47.07C182.839 47.07 182.452 46.9567 182.132 46.73C181.812 46.5033 181.595 46.18 181.482 45.76L181.592 45.65V47H180.782ZM183.142 46.4C183.629 46.4 184.009 46.23 184.282 45.89C184.555 45.5433 184.692 45.06 184.692 44.44C184.692 43.8333 184.555 43.3633 184.282 43.03C184.009 42.6967 183.629 42.53 183.142 42.53C182.642 42.53 182.259 42.7 181.992 43.04C181.725 43.3733 181.592 43.8467 181.592 44.46C181.592 45.08 181.725 45.56 181.992 45.9C182.259 46.2333 182.642 46.4 183.142 46.4ZM188.478 47.07C187.631 47.07 186.961 46.8533 186.468 46.42L186.738 45.82C187.005 46.0267 187.278 46.18 187.558 46.28C187.845 46.3733 188.161 46.42 188.508 46.42C188.888 46.42 189.175 46.3567 189.368 46.23C189.568 46.0967 189.668 45.9067 189.668 45.66C189.668 45.46 189.601 45.3033 189.468 45.19C189.335 45.07 189.115 44.9733 188.808 44.9L187.958 44.7C187.538 44.6067 187.211 44.44 186.978 44.2C186.751 43.96 186.638 43.6733 186.638 43.34C186.638 43.0467 186.718 42.79 186.878 42.57C187.038 42.3433 187.261 42.1667 187.548 42.04C187.835 41.9133 188.175 41.85 188.568 41.85C188.921 41.85 189.255 41.9067 189.568 42.02C189.881 42.1333 190.145 42.2967 190.358 42.51L190.088 43.1C189.848 42.9 189.601 42.7533 189.348 42.66C189.101 42.56 188.841 42.51 188.568 42.51C188.208 42.51 187.928 42.58 187.728 42.72C187.535 42.86 187.438 43.05 187.438 43.29C187.438 43.4967 187.498 43.66 187.618 43.78C187.745 43.9 187.945 43.9933 188.218 44.06L189.068 44.27C189.541 44.37 189.888 44.5367 190.108 44.77C190.335 44.9967 190.448 45.2867 190.448 45.64C190.448 46.0733 190.271 46.42 189.918 46.68C189.565 46.94 189.085 47.07 188.478 47.07ZM193.849 47.07C193.356 47.07 192.929 46.9633 192.569 46.75C192.209 46.5367 191.929 46.2367 191.729 45.85C191.536 45.4633 191.439 45.0067 191.439 44.48C191.439 43.96 191.539 43.5033 191.739 43.11C191.939 42.71 192.222 42.4 192.589 42.18C192.956 41.96 193.389 41.85 193.889 41.85C194.229 41.85 194.556 41.91 194.869 42.03C195.189 42.1433 195.452 42.3033 195.659 42.51L195.389 43.11C195.142 42.9167 194.899 42.7733 194.659 42.68C194.426 42.58 194.182 42.53 193.929 42.53C193.422 42.53 193.019 42.7 192.719 43.04C192.426 43.38 192.279 43.86 192.279 44.48C192.279 45.0933 192.426 45.5667 192.719 45.9C193.012 46.2333 193.416 46.4 193.929 46.4C194.176 46.4 194.419 46.3533 194.659 46.26C194.899 46.16 195.142 46.0133 195.389 45.82L195.659 46.42C195.446 46.62 195.176 46.78 194.849 46.9C194.529 47.0133 194.196 47.07 193.849 47.07ZM196.69 47V43.38C196.69 43.1467 196.683 42.9133 196.67 42.68C196.663 42.44 196.643 42.2033 196.61 41.97H197.38L197.49 43.21L197.38 43.18C197.473 42.74 197.673 42.41 197.98 42.19C198.293 41.9633 198.643 41.85 199.03 41.85C199.117 41.85 199.197 41.8567 199.27 41.87C199.35 41.8767 199.423 41.89 199.49 41.91L199.47 42.65C199.317 42.5967 199.14 42.57 198.94 42.57C198.593 42.57 198.313 42.6467 198.1 42.8C197.893 42.9533 197.74 43.15 197.64 43.39C197.547 43.6233 197.5 43.87 197.5 44.13V47H196.69ZM200.313 47V41.97H201.123V47H200.313ZM200.233 39.84H201.223V40.76H200.233V39.84ZM202.696 49.16V43.38C202.696 43.1467 202.689 42.9133 202.676 42.68C202.669 42.44 202.649 42.2033 202.616 41.97H203.386L203.476 43.01L203.396 43.16C203.509 42.74 203.726 42.4167 204.046 42.19C204.366 41.9633 204.753 41.85 205.206 41.85C205.646 41.85 206.033 41.96 206.366 42.18C206.706 42.4 206.969 42.7067 207.156 43.1C207.349 43.4933 207.446 43.9533 207.446 44.48C207.446 45.0067 207.349 45.4667 207.156 45.86C206.969 46.2467 206.709 46.5467 206.376 46.76C206.043 46.9667 205.653 47.07 205.206 47.07C204.753 47.07 204.366 46.9567 204.046 46.73C203.726 46.5033 203.509 46.18 203.396 45.76L203.506 45.66V49.16H202.696ZM205.056 46.4C205.543 46.4 205.923 46.2333 206.196 45.9C206.469 45.5667 206.606 45.0933 206.606 44.48C206.606 43.8667 206.469 43.39 206.196 43.05C205.923 42.7033 205.543 42.53 205.056 42.53C204.556 42.53 204.173 42.6967 203.906 43.03C203.639 43.3633 203.506 43.84 203.506 44.46C203.506 45.08 203.639 45.56 203.906 45.9C204.173 46.2333 204.556 46.4 205.056 46.4ZM207.972 42.61V41.97H211.202V42.61H207.972ZM211.182 46.28V46.97C211.069 47.0033 210.956 47.0267 210.842 47.04C210.736 47.06 210.616 47.07 210.482 47.07C210.016 47.07 209.642 46.9367 209.362 46.67C209.089 46.4033 208.952 46.0033 208.952 45.47V40.68L209.762 40.39V45.36C209.762 45.6267 209.799 45.8333 209.872 45.98C209.952 46.1267 210.059 46.23 210.192 46.29C210.326 46.3433 210.476 46.37 210.642 46.37C210.742 46.37 210.832 46.3633 210.912 46.35C210.992 46.3367 211.082 46.3133 211.182 46.28ZM212.178 47V41.97H212.988V47H212.178ZM212.098 39.84H213.088V40.76H212.098V39.84ZM216.641 47.07C216.161 47.07 215.741 46.9633 215.381 46.75C215.028 46.5367 214.751 46.2367 214.551 45.85C214.358 45.4567 214.261 44.9933 214.261 44.46C214.261 43.9333 214.358 43.4733 214.551 43.08C214.751 42.6867 215.028 42.3833 215.381 42.17C215.741 41.9567 216.161 41.85 216.641 41.85C217.121 41.85 217.538 41.9567 217.891 42.17C218.251 42.3833 218.528 42.6867 218.721 43.08C218.921 43.4733 219.021 43.9333 219.021 44.46C219.021 44.9933 218.921 45.4567 218.721 45.85C218.528 46.2367 218.251 46.5367 217.891 46.75C217.538 46.9633 217.121 47.07 216.641 47.07ZM216.641 46.4C217.135 46.4 217.515 46.2367 217.781 45.91C218.055 45.5767 218.191 45.0933 218.191 44.46C218.191 43.84 218.055 43.3633 217.781 43.03C217.508 42.6967 217.128 42.53 216.641 42.53C216.155 42.53 215.771 42.6967 215.491 43.03C215.218 43.3633 215.081 43.84 215.081 44.46C215.081 45.0933 215.215 45.5767 215.481 45.91C215.755 46.2367 216.141 46.4 216.641 46.4ZM220.284 47V43.38C220.284 43.1467 220.277 42.9133 220.264 42.68C220.257 42.44 220.237 42.2033 220.204 41.97H220.974L221.064 43.01L220.964 43.09C221.104 42.6833 221.337 42.3767 221.664 42.17C221.991 41.9567 222.367 41.85 222.794 41.85C224.001 41.85 224.604 42.5133 224.604 43.84V47H223.794V43.88C223.794 43.4133 223.701 43.0733 223.514 42.86C223.327 42.64 223.034 42.53 222.634 42.53C222.167 42.53 221.794 42.6733 221.514 42.96C221.234 43.2467 221.094 43.6333 221.094 44.12V47H220.284ZM227.834 47.07C226.987 47.07 226.317 46.8533 225.824 46.42L226.094 45.82C226.36 46.0267 226.634 46.18 226.914 46.28C227.2 46.3733 227.517 46.42 227.864 46.42C228.244 46.42 228.53 46.3567 228.724 46.23C228.924 46.0967 229.024 45.9067 229.024 45.66C229.024 45.46 228.957 45.3033 228.824 45.19C228.69 45.07 228.47 44.9733 228.164 44.9L227.314 44.7C226.894 44.6067 226.567 44.44 226.334 44.2C226.107 43.96 225.994 43.6733 225.994 43.34C225.994 43.0467 226.074 42.79 226.234 42.57C226.394 42.3433 226.617 42.1667 226.904 42.04C227.19 41.9133 227.53 41.85 227.924 41.85C228.277 41.85 228.61 41.9067 228.924 42.02C229.237 42.1333 229.5 42.2967 229.714 42.51L229.444 43.1C229.204 42.9 228.957 42.7533 228.704 42.66C228.457 42.56 228.197 42.51 227.924 42.51C227.564 42.51 227.284 42.58 227.084 42.72C226.89 42.86 226.794 43.05 226.794 43.29C226.794 43.4967 226.854 43.66 226.974 43.78C227.1 43.9 227.3 43.9933 227.574 44.06L228.424 44.27C228.897 44.37 229.244 44.5367 229.464 44.77C229.69 44.9967 229.804 45.2867 229.804 45.64C229.804 46.0733 229.627 46.42 229.274 46.68C228.92 46.94 228.44 47.07 227.834 47.07Z" fill="#898989"/>
<path opacity="0.24" fill-rule="evenodd" clip-rule="evenodd" d="M194.906 15C194.906 14.4477 195.355 14 195.901 14H203.91C204.46 14 204.906 14.4439 204.906 15C204.906 15.5523 204.456 16 203.91 16H195.901C195.351 16 194.906 15.5561 194.906 15ZM191.01 22.0949L191.811 30.1041C191.917 31.1665 192.836 32 193.901 32H205.91C206.971 32 207.894 31.1632 208 30.1041L208.801 22.0949C208.915 20.9538 208.05 20 206.905 20H192.906C191.759 20 190.896 20.9558 191.01 22.0949ZM193.011 22.0042L206.8 22.0079L205.906 30H193.906L193.011 22.0042ZM193.901 17C193.356 17 192.906 17.4477 192.906 18C192.906 18.5561 193.351 19 193.901 19H205.91C206.456 19 206.906 18.5523 206.906 18C206.906 17.4439 206.46 17 205.91 17H193.901Z" fill="black"/>
<path d="M265.88 47V39.88H266.7V46.3H270.27V47H265.88ZM271.229 47V41.97H272.039V47H271.229ZM271.149 39.84H272.139V40.76H271.149V39.84ZM273.612 47V39.64H274.422V43.26L274.312 43.16C274.425 42.7467 274.642 42.4267 274.962 42.2C275.282 41.9667 275.669 41.85 276.122 41.85C276.569 41.85 276.959 41.9567 277.292 42.17C277.625 42.3833 277.885 42.6833 278.072 43.07C278.265 43.4567 278.362 43.9133 278.362 44.44C278.362 44.9667 278.265 45.43 278.072 45.83C277.885 46.2233 277.622 46.53 277.282 46.75C276.949 46.9633 276.562 47.07 276.122 47.07C275.669 47.07 275.282 46.9567 274.962 46.73C274.642 46.5033 274.425 46.18 274.312 45.76L274.422 45.65V47H273.612ZM275.972 46.4C276.459 46.4 276.839 46.23 277.112 45.89C277.385 45.5433 277.522 45.06 277.522 44.44C277.522 43.8333 277.385 43.3633 277.112 43.03C276.839 42.6967 276.459 42.53 275.972 42.53C275.472 42.53 275.089 42.7 274.822 43.04C274.555 43.3733 274.422 43.8467 274.422 44.46C274.422 45.08 274.555 45.56 274.822 45.9C275.089 46.2333 275.472 46.4 275.972 46.4ZM279.608 47V43.38C279.608 43.1467 279.601 42.9133 279.588 42.68C279.581 42.44 279.561 42.2033 279.528 41.97H280.298L280.408 43.21L280.298 43.18C280.391 42.74 280.591 42.41 280.898 42.19C281.211 41.9633 281.561 41.85 281.948 41.85C282.035 41.85 282.115 41.8567 282.188 41.87C282.268 41.8767 282.341 41.89 282.408 41.91L282.388 42.65C282.235 42.5967 282.058 42.57 281.858 42.57C281.511 42.57 281.231 42.6467 281.018 42.8C280.811 42.9533 280.658 43.15 280.558 43.39C280.465 43.6233 280.418 43.87 280.418 44.13V47H279.608ZM285.064 47.07C284.617 47.07 284.224 46.9667 283.884 46.76C283.55 46.5467 283.29 46.2467 283.104 45.86C282.924 45.4667 282.834 45.0067 282.834 44.48C282.834 43.9533 282.927 43.4933 283.114 43.1C283.3 42.7067 283.56 42.4 283.894 42.18C284.234 41.96 284.624 41.85 285.064 41.85C285.524 41.85 285.914 41.9633 286.234 42.19C286.554 42.4167 286.77 42.74 286.884 43.16L286.764 43.24V41.97H287.564V47H286.764V45.7L286.884 45.76C286.77 46.18 286.554 46.5033 286.234 46.73C285.914 46.9567 285.524 47.07 285.064 47.07ZM285.224 46.4C285.717 46.4 286.097 46.2333 286.364 45.9C286.63 45.56 286.764 45.08 286.764 44.46C286.764 43.84 286.627 43.3633 286.354 43.03C286.087 42.6967 285.71 42.53 285.224 42.53C284.73 42.53 284.344 42.7033 284.064 43.05C283.79 43.39 283.654 43.8667 283.654 44.48C283.654 45.0933 283.79 45.5667 284.064 45.9C284.344 46.2333 284.73 46.4 285.224 46.4ZM289.13 47V43.38C289.13 43.1467 289.123 42.9133 289.11 42.68C289.103 42.44 289.083 42.2033 289.05 41.97H289.82L289.93 43.21L289.82 43.18C289.913 42.74 290.113 42.41 290.42 42.19C290.733 41.9633 291.083 41.85 291.47 41.85C291.556 41.85 291.636 41.8567 291.71 41.87C291.79 41.8767 291.863 41.89 291.93 41.91L291.91 42.65C291.756 42.5967 291.58 42.57 291.38 42.57C291.033 42.57 290.753 42.6467 290.54 42.8C290.333 42.9533 290.18 43.15 290.08 43.39C289.986 43.6233 289.94 43.87 289.94 44.13V47H289.13ZM292.815 49.27L292.645 48.64C292.952 48.5667 293.209 48.48 293.415 48.38C293.629 48.2867 293.805 48.1633 293.945 48.01C294.092 47.8567 294.219 47.6533 294.325 47.4L294.645 46.66L294.825 46.41L296.665 41.97H297.475L295.125 47.46C294.945 47.8667 294.742 48.19 294.515 48.43C294.289 48.6767 294.032 48.8633 293.745 48.99C293.465 49.1167 293.155 49.21 292.815 49.27ZM294.655 47.26L292.395 41.97H293.245L295.065 46.41L294.655 47.26Z" fill="#898989"/>
<path opacity="0.24" fill-rule="evenodd" clip-rule="evenodd" d="M273.814 15C272.818 15 272 15.794 272 16.7734V29.2266C272 30.2066 272.814 31 273.819 31H290.181C291.185 31 292 30.2042 292 29.2225V19.4441C292 18.4608 291.184 17.6667 290.178 17.6667H282.003L280.716 15.7428C280.441 15.3323 279.811 15 279.308 15H273.814ZM290.181 29.2222L273.818 29.2266L273.814 16.7778L279.273 16.7821L280.482 18.6402C280.818 19.142 281.39 19.4444 282.003 19.4444L290.182 19.4441L290.181 29.2222Z" fill="black"/>
</svg>
